<svg xmlns="http://www.w3.org/2000/svg" xmlns:xlink="http://www.w3.org/1999/xlink" width="500" zoomAndPan="magnify" viewBox="0 0 375 374.999991" height="500" preserveAspectRatio="xMidYMid meet" version="1.0"><defs><g/></defs><g fill="#fff" fill-opacity="1"><g transform="translate(67.482899, 113.114177)"><g><path d="M 30.765625 2.46875 C 26.429688 2.46875 23.234375 1.101562 21.171875 -1.625 C 19.109375 -4.351562 18.078125 -7.984375 18.078125 -12.515625 C 18.078125 -15.816406 18.617188 -19.65625 19.703125 -24.03125 C 20.785156 -28.414062 22.046875 -32.796875 23.484375 -37.171875 C 24.929688 -41.546875 26.195312 -45.535156 27.28125 -49.140625 C 28.363281 -52.753906 28.90625 -55.488281 28.90625 -57.34375 C 28.90625 -59.914062 27.820312 -61.203125 25.65625 -61.203125 C 25.25 -61.203125 24.8125 -61.175781 24.34375 -61.125 C 23.875 -61.070312 23.382812 -60.992188 22.875 -60.890625 C 25.863281 -64.085938 29.265625 -66.816406 33.078125 -69.078125 C 36.890625 -71.347656 40.597656 -72.484375 44.203125 -72.484375 C 46.773438 -72.484375 48.960938 -71.757812 50.765625 -70.3125 C 52.578125 -68.875 53.484375 -66.300781 53.484375 -62.59375 C 53.484375 -58.988281 52.785156 -54.992188 51.390625 -50.609375 C 50.003906 -46.234375 48.585938 -41.726562 47.140625 -37.09375 C 45.703125 -32.457031 44.984375 -28.023438 44.984375 -23.796875 C 44.984375 -21.328125 45.546875 -19.242188 46.671875 -17.546875 C 47.804688 -15.847656 49.660156 -15 52.234375 -15 C 52.648438 -15 53.007812 -15.019531 53.3125 -15.0625 C 53.625 -15.113281 53.988281 -15.140625 54.40625 -15.140625 C 53.375 -12.984375 51.800781 -10.535156 49.6875 -7.796875 C 47.570312 -5.066406 44.941406 -2.671875 41.796875 -0.609375 C 38.660156 1.441406 34.984375 2.46875 30.765625 2.46875 Z M 63.21875 -70.9375 C 59.507812 -70.9375 55.875 -71.453125 52.3125 -72.484375 C 48.757812 -73.515625 45.234375 -74.675781 41.734375 -75.96875 C 38.234375 -77.257812 34.703125 -78.414062 31.140625 -79.4375 C 27.585938 -80.46875 23.957031 -80.984375 20.25 -80.984375 C 18.289062 -80.984375 16.304688 -80.773438 14.296875 -80.359375 C 12.285156 -79.953125 10.351562 -79.179688 8.5 -78.046875 C 8.914062 -80.421875 9.710938 -83.078125 10.890625 -86.015625 C 12.078125 -88.953125 13.726562 -91.757812 15.84375 -94.4375 C 17.957031 -97.113281 20.632812 -99.328125 23.875 -101.078125 C 27.125 -102.835938 30.960938 -103.71875 35.390625 -103.71875 C 39.828125 -103.71875 44.128906 -102.992188 48.296875 -101.546875 C 52.472656 -100.109375 56.695312 -98.664062 60.96875 -97.21875 C 65.25 -95.78125 69.707031 -95.0625 74.34375 -95.0625 C 76.507812 -95.0625 78.597656 -95.289062 80.609375 -95.75 C 82.617188 -96.21875 84.445312 -97.015625 86.09375 -98.140625 C 86.09375 -95.671875 85.628906 -92.890625 84.703125 -89.796875 C 83.773438 -86.703125 82.382812 -83.710938 80.53125 -80.828125 C 78.675781 -77.953125 76.304688 -75.582031 73.421875 -73.71875 C 70.535156 -71.863281 67.132812 -70.9375 63.21875 -70.9375 Z M 63.21875 -70.9375 "/></g></g></g><g fill="#fff" fill-opacity="1"><g transform="translate(156.354363, 113.114177)"><g><path d="M 5.40625 2.46875 C -0.664062 2.46875 -3.703125 -1.289062 -3.703125 -8.8125 C -3.703125 -12.414062 -3.035156 -16.429688 -1.703125 -20.859375 L 17.921875 -88.25 C 19.367188 -93.09375 19.832031 -96.441406 19.3125 -98.296875 C 18.800781 -100.148438 17.566406 -101.078125 15.609375 -101.078125 C 15.203125 -101.078125 14.816406 -101.050781 14.453125 -101 C 14.085938 -100.945312 13.648438 -100.875 13.140625 -100.78125 C 14.273438 -102.425781 15.796875 -104.226562 17.703125 -106.1875 C 19.609375 -108.144531 21.820312 -109.816406 24.34375 -111.203125 C 26.863281 -112.597656 29.515625 -113.296875 32.296875 -113.296875 C 38.898438 -113.296875 42.203125 -109.378906 42.203125 -101.546875 C 42.203125 -98.148438 41.53125 -94.285156 40.1875 -89.953125 L 31.0625 -58.421875 C 33.019531 -61.828125 35.546875 -65.148438 38.640625 -68.390625 C 41.734375 -71.640625 45.160156 -74.34375 48.921875 -76.5 C 52.679688 -78.664062 56.414062 -79.75 60.125 -79.75 C 64.445312 -79.75 67.378906 -78.359375 68.921875 -75.578125 C 70.472656 -72.796875 71.25 -69.445312 71.25 -65.53125 C 71.25 -61.71875 70.757812 -57.773438 69.78125 -53.703125 C 68.800781 -49.640625 67.664062 -45.753906 66.375 -42.046875 C 65.09375 -38.335938 63.960938 -34.9375 62.984375 -31.84375 C 62.003906 -28.75 61.515625 -26.171875 61.515625 -24.109375 C 61.515625 -21.117188 62.800781 -19.625 65.375 -19.625 C 66.613281 -19.625 67.898438 -20.007812 69.234375 -20.78125 C 70.578125 -21.5625 71.816406 -22.515625 72.953125 -23.640625 C 72.234375 -21.171875 71.125 -18.441406 69.625 -15.453125 C 68.132812 -12.460938 66.28125 -9.601562 64.0625 -6.875 C 61.851562 -4.144531 59.328125 -1.90625 56.484375 -0.15625 C 53.648438 1.59375 50.429688 2.46875 46.828125 2.46875 C 42.804688 2.46875 39.972656 1.257812 38.328125 -1.15625 C 36.679688 -3.582031 35.859375 -6.390625 35.859375 -9.578125 C 35.859375 -12.253906 36.375 -15.421875 37.40625 -19.078125 C 38.4375 -22.742188 39.617188 -26.535156 40.953125 -30.453125 C 42.296875 -34.367188 43.484375 -38.15625 44.515625 -41.8125 C 45.546875 -45.46875 46.0625 -48.6875 46.0625 -51.46875 C 46.0625 -53.320312 45.722656 -54.816406 45.046875 -55.953125 C 44.378906 -57.085938 43.273438 -57.65625 41.734375 -57.65625 C 39.160156 -57.65625 36.710938 -56.46875 34.390625 -54.09375 C 32.066406 -51.726562 30.003906 -48.765625 28.203125 -45.203125 C 26.398438 -41.648438 24.984375 -38.070312 23.953125 -34.46875 C 22.921875 -30.863281 22.40625 -27.820312 22.40625 -25.34375 C 22.40625 -21.425781 23.59375 -19.46875 25.96875 -19.46875 C 26.476562 -19.46875 26.835938 -19.519531 27.046875 -19.625 C 24.679688 -13.03125 21.566406 -7.695312 17.703125 -3.625 C 13.835938 0.4375 9.738281 2.46875 5.40625 2.46875 Z M 5.40625 2.46875 "/></g></g></g><g fill="#fff" fill-opacity="1"><g transform="translate(245.38039, 113.114177)"><g><path d="M 22.71875 2.46875 C 17.15625 2.46875 12.644531 1.3125 9.1875 -1 C 5.738281 -3.320312 3.21875 -6.46875 1.625 -10.4375 C 0.03125 -14.40625 -0.765625 -18.804688 -0.765625 -23.640625 C -0.765625 -29.722656 0.335938 -36.035156 2.546875 -42.578125 C 4.765625 -49.117188 7.90625 -55.195312 11.96875 -60.8125 C 16.039062 -66.4375 20.882812 -71 26.5 -74.5 C 32.125 -78 38.382812 -79.75 45.28125 -79.75 C 51.570312 -79.75 56.390625 -78.226562 59.734375 -75.1875 C 63.085938 -72.15625 64.765625 -68.0625 64.765625 -62.90625 C 64.765625 -60.4375 64.25 -57.421875 63.21875 -53.859375 C 62.1875 -50.304688 60.351562 -46.648438 57.71875 -42.890625 C 55.09375 -39.128906 51.304688 -35.648438 46.359375 -32.453125 C 41.421875 -29.265625 34.984375 -26.84375 27.046875 -25.1875 C 30.140625 -27.664062 32.84375 -30.5 35.15625 -33.6875 C 37.476562 -36.882812 39.28125 -40.101562 40.5625 -43.34375 C 41.851562 -46.59375 42.5 -49.40625 42.5 -51.78125 C 42.5 -53.53125 42.113281 -54.945312 41.34375 -56.03125 C 40.570312 -57.113281 39.363281 -57.65625 37.71875 -57.65625 C 35.550781 -57.65625 33.539062 -56.773438 31.6875 -55.015625 C 29.832031 -53.265625 28.179688 -51.023438 26.734375 -48.296875 C 25.296875 -45.566406 24.164062 -42.707031 23.34375 -39.71875 C 22.519531 -36.726562 22.109375 -34 22.109375 -31.53125 C 22.109375 -28.226562 22.984375 -25.414062 24.734375 -23.09375 C 26.484375 -20.78125 29.421875 -19.625 33.546875 -19.625 C 37.972656 -19.625 42.296875 -20.882812 46.515625 -23.40625 C 50.742188 -25.9375 54.144531 -28.851562 56.71875 -32.15625 C 56.207031 -28.238281 55.148438 -24.242188 53.546875 -20.171875 C 51.953125 -16.097656 49.789062 -12.359375 47.0625 -8.953125 C 44.332031 -5.554688 40.957031 -2.800781 36.9375 -0.6875 C 32.914062 1.414062 28.175781 2.46875 22.71875 2.46875 Z M 22.71875 2.46875 "/></g></g></g><g fill="#fff" fill-opacity="1"><g transform="translate(13.459465, 227.114169)"><g><path d="M 48.21875 -28.4375 C 43.375 -28.4375 39.765625 -29.566406 37.390625 -31.828125 C 35.023438 -34.097656 33.484375 -36.726562 32.765625 -39.71875 C 37.816406 -40.34375 42.398438 -41.941406 46.515625 -44.515625 C 50.640625 -47.085938 53.910156 -50.382812 56.328125 -54.40625 C 58.753906 -58.425781 59.96875 -62.703125 59.96875 -67.234375 C 59.96875 -72.492188 58.238281 -76.410156 54.78125 -78.984375 C 51.332031 -81.554688 46.414062 -82.84375 40.03125 -82.84375 C 35.1875 -82.84375 30.597656 -82.222656 26.265625 -80.984375 C 21.941406 -79.753906 18.128906 -78.3125 14.828125 -76.65625 C 11.535156 -75.007812 9.015625 -73.46875 7.265625 -72.03125 C 7.578125 -74.394531 8.660156 -77.328125 10.515625 -80.828125 C 12.367188 -84.335938 15.046875 -87.867188 18.546875 -91.421875 C 22.046875 -94.972656 26.472656 -97.929688 31.828125 -100.296875 C 37.191406 -102.671875 43.582031 -103.859375 51 -103.859375 C 58.726562 -103.859375 65.09375 -102.46875 70.09375 -99.6875 C 75.09375 -96.90625 78.828125 -93.09375 81.296875 -88.25 C 83.773438 -83.40625 85.015625 -77.945312 85.015625 -71.875 C 85.015625 -66.101562 84.007812 -60.613281 82 -55.40625 C 79.988281 -50.207031 77.253906 -45.570312 73.796875 -41.5 C 70.347656 -37.425781 66.429688 -34.226562 62.046875 -31.90625 C 57.671875 -29.59375 53.0625 -28.4375 48.21875 -28.4375 Z M 13.90625 2.46875 C 5.457031 2.46875 1.234375 -2.679688 1.234375 -12.984375 C 1.234375 -15.765625 1.539062 -18.597656 2.15625 -21.484375 C 2.78125 -24.367188 3.710938 -27.769531 4.953125 -31.6875 L 12.515625 -55.953125 C 13.648438 -59.660156 14.21875 -62.441406 14.21875 -64.296875 C 14.21875 -66.765625 13.132812 -68 10.96875 -68 C 10.5625 -68 10.148438 -67.972656 9.734375 -67.921875 C 9.328125 -67.878906 8.863281 -67.804688 8.34375 -67.703125 C 8.34375 -67.703125 8.910156 -68.289062 10.046875 -69.46875 C 11.179688 -70.65625 12.753906 -71.992188 14.765625 -73.484375 C 16.773438 -74.984375 19.039062 -76.328125 21.5625 -77.515625 C 24.082031 -78.703125 26.679688 -79.296875 29.359375 -79.296875 C 32.046875 -79.296875 34.289062 -78.570312 36.09375 -77.125 C 37.894531 -75.6875 38.796875 -73.210938 38.796875 -69.703125 C 38.796875 -66.921875 38.253906 -63.625 37.171875 -59.8125 C 36.085938 -56 34.875 -52.003906 33.53125 -47.828125 C 32.195312 -43.660156 30.988281 -39.539062 29.90625 -35.46875 C 28.820312 -31.394531 28.28125 -27.710938 28.28125 -24.421875 C 28.28125 -21.847656 28.796875 -19.632812 29.828125 -17.78125 C 30.859375 -15.925781 32.660156 -15 35.234375 -15 C 35.753906 -15 36.164062 -15.019531 36.46875 -15.0625 C 36.78125 -15.113281 37.144531 -15.140625 37.5625 -15.140625 C 36.53125 -12.984375 34.957031 -10.535156 32.84375 -7.796875 C 30.726562 -5.066406 28.097656 -2.671875 24.953125 -0.609375 C 21.816406 1.441406 18.132812 2.46875 13.90625 2.46875 Z M 13.90625 2.46875 "/></g></g></g><g fill="#fff" fill-opacity="1"><g transform="translate(106.658569, 227.114169)"><g><path d="M 7.875 2.46875 C 3.65625 2.46875 0.695312 1.234375 -1 -1.234375 C -2.707031 -3.710938 -3.5625 -6.441406 -3.5625 -9.421875 C -3.5625 -11.484375 -3.351562 -13.492188 -2.9375 -15.453125 C -2.519531 -17.410156 -2.054688 -19.210938 -1.546875 -20.859375 L 18.078125 -88.25 C 19.003906 -91.863281 19.46875 -94.644531 19.46875 -96.59375 C 19.46875 -99.582031 18.285156 -101.078125 15.921875 -101.078125 C 15.503906 -101.078125 15.0625 -101.078125 14.59375 -101.078125 C 14.132812 -101.078125 13.648438 -100.976562 13.140625 -100.78125 C 13.140625 -100.78125 13.628906 -101.394531 14.609375 -102.625 C 15.585938 -103.863281 16.925781 -105.332031 18.625 -107.03125 C 20.320312 -108.726562 22.351562 -110.195312 24.71875 -111.4375 C 27.09375 -112.675781 29.671875 -113.296875 32.453125 -113.296875 C 38.953125 -113.296875 42.203125 -109.484375 42.203125 -101.859375 C 42.203125 -98.347656 41.53125 -94.378906 40.1875 -89.953125 L 25.65625 -39.71875 C 24.726562 -36.726562 23.90625 -33.972656 23.1875 -31.453125 C 22.46875 -28.929688 22.109375 -26.640625 22.109375 -24.578125 C 22.109375 -23.128906 22.390625 -21.941406 22.953125 -21.015625 C 23.515625 -20.085938 24.519531 -19.625 25.96875 -19.625 C 27.207031 -19.625 28.492188 -20.007812 29.828125 -20.78125 C 31.171875 -21.5625 32.359375 -22.515625 33.390625 -23.640625 C 31.835938 -18.703125 29.722656 -14.25 27.046875 -10.28125 C 24.367188 -6.3125 21.378906 -3.191406 18.078125 -0.921875 C 14.785156 1.335938 11.382812 2.46875 7.875 2.46875 Z M 7.875 2.46875 "/></g></g></g><g fill="#fff" fill-opacity="1"><g transform="translate(156.117613, 227.114169)"><g><path d="M 12.671875 2.46875 C 7.929688 2.46875 4.554688 0.820312 2.546875 -2.46875 C 0.535156 -5.769531 -0.46875 -9.6875 -0.46875 -14.21875 C -0.46875 -17.925781 0.148438 -22.125 1.390625 -26.8125 C 2.628906 -31.5 4.046875 -36.210938 5.640625 -40.953125 C 7.234375 -45.691406 8.648438 -50.046875 9.890625 -54.015625 C 11.128906 -57.984375 11.75 -61.101562 11.75 -63.375 C 11.75 -66.257812 10.5625 -67.703125 8.1875 -67.703125 C 7.363281 -67.703125 6.488281 -67.546875 5.5625 -67.234375 C 5.5625 -67.234375 6.050781 -67.847656 7.03125 -69.078125 C 8.007812 -70.316406 9.398438 -71.785156 11.203125 -73.484375 C 13.003906 -75.191406 15.085938 -76.660156 17.453125 -77.890625 C 19.828125 -79.128906 22.40625 -79.75 25.1875 -79.75 C 27.457031 -79.75 29.597656 -78.953125 31.609375 -77.359375 C 33.617188 -75.765625 34.625 -72.851562 34.625 -68.625 C 34.625 -65.738281 34.109375 -62.414062 33.078125 -58.65625 C 32.046875 -54.894531 30.859375 -51.003906 29.515625 -46.984375 C 28.179688 -42.960938 27 -39.125 25.96875 -35.46875 C 24.9375 -31.8125 24.421875 -28.59375 24.421875 -25.8125 C 24.421875 -23.957031 24.753906 -22.460938 25.421875 -21.328125 C 26.097656 -20.191406 27.207031 -19.625 28.75 -19.625 C 32.351562 -19.625 35.828125 -22.5625 39.171875 -28.4375 C 42.523438 -34.3125 45.644531 -42.195312 48.53125 -52.09375 C 49.050781 -54.144531 49.460938 -55.941406 49.765625 -57.484375 C 50.078125 -59.035156 50.234375 -60.429688 50.234375 -61.671875 C 50.234375 -65.585938 48.945312 -67.546875 46.375 -67.546875 C 46.0625 -67.546875 45.75 -67.546875 45.4375 -67.546875 C 45.132812 -67.546875 44.828125 -67.441406 44.515625 -67.234375 C 45.441406 -68.578125 46.832031 -70.226562 48.6875 -72.1875 C 50.539062 -74.144531 52.753906 -75.894531 55.328125 -77.4375 C 57.910156 -78.976562 60.695312 -79.75 63.6875 -79.75 C 70.28125 -79.75 73.578125 -75.882812 73.578125 -68.15625 C 73.578125 -64.757812 72.90625 -60.847656 71.5625 -56.421875 L 66.609375 -39.5625 C 65.679688 -36.675781 64.804688 -33.84375 63.984375 -31.0625 C 63.160156 -28.28125 62.75 -25.960938 62.75 -24.109375 C 62.75 -21.117188 64.085938 -19.625 66.765625 -19.625 C 68.003906 -19.625 69.289062 -20.007812 70.625 -20.78125 C 71.96875 -21.5625 73.15625 -22.515625 74.1875 -23.640625 C 71.195312 -14.265625 67.460938 -7.566406 62.984375 -3.546875 C 58.503906 0.460938 53.84375 2.46875 49 2.46875 C 44.875 2.46875 41.9375 1.179688 40.1875 -1.390625 C 38.4375 -3.960938 37.5625 -6.953125 37.5625 -10.359375 C 37.5625 -11.796875 37.710938 -13.335938 38.015625 -14.984375 C 38.328125 -16.640625 38.640625 -17.984375 38.953125 -19.015625 C 36.992188 -15.398438 34.671875 -11.941406 31.984375 -8.640625 C 29.304688 -5.347656 26.34375 -2.671875 23.09375 -0.609375 C 19.851562 1.441406 16.378906 2.46875 12.671875 2.46875 Z M 12.671875 2.46875 "/></g></g></g><g fill="#fff" fill-opacity="1"><g transform="translate(246.380111, 227.114169)"><g><path d="M 7.578125 2.46875 C 1.492188 2.46875 -1.546875 -1.394531 -1.546875 -9.125 C -1.546875 -12.3125 -0.875 -16.222656 0.46875 -20.859375 L 10.359375 -54.71875 C 11.390625 -58.21875 11.90625 -61 11.90625 -63.0625 C 11.90625 -66.15625 10.613281 -67.703125 8.03125 -67.703125 C 7.3125 -67.703125 6.488281 -67.546875 5.5625 -67.234375 C 5.5625 -67.234375 6.050781 -67.847656 7.03125 -69.078125 C 8.007812 -70.316406 9.347656 -71.785156 11.046875 -73.484375 C 12.742188 -75.191406 14.753906 -76.660156 17.078125 -77.890625 C 19.398438 -79.128906 21.953125 -79.75 24.734375 -79.75 C 31.328125 -79.75 34.625 -75.882812 34.625 -68.15625 C 34.625 -65.375 34.160156 -62.128906 33.234375 -58.421875 C 35.191406 -61.929688 37.535156 -65.304688 40.265625 -68.546875 C 42.992188 -71.796875 46.054688 -74.472656 49.453125 -76.578125 C 52.859375 -78.691406 56.46875 -79.75 60.28125 -79.75 C 64.707031 -79.75 67.742188 -78.28125 69.390625 -75.34375 C 71.046875 -72.40625 71.875 -68.828125 71.875 -64.609375 C 71.875 -63.265625 71.820312 -61.972656 71.71875 -60.734375 C 71.613281 -59.503906 71.457031 -58.269531 71.25 -57.03125 C 73.414062 -60.84375 75.992188 -64.472656 78.984375 -67.921875 C 81.972656 -71.378906 85.21875 -74.210938 88.71875 -76.421875 C 92.21875 -78.640625 95.820312 -79.75 99.53125 -79.75 C 103.757812 -79.75 106.671875 -78.382812 108.265625 -75.65625 C 109.867188 -72.925781 110.671875 -69.601562 110.671875 -65.6875 C 110.671875 -61.050781 109.945312 -56.207031 108.5 -51.15625 C 107.0625 -46.113281 105.566406 -41.398438 104.015625 -37.015625 C 102.472656 -32.640625 101.492188 -29.007812 101.078125 -26.125 C 100.460938 -21.789062 101.648438 -19.625 104.640625 -19.625 C 105.972656 -19.625 107.3125 -20.007812 108.65625 -20.78125 C 110 -21.5625 111.1875 -22.515625 112.21875 -23.640625 C 109.226562 -14.992188 105.4375 -8.476562 100.84375 -4.09375 C 96.257812 0.28125 91.394531 2.46875 86.25 2.46875 C 82.226562 2.46875 79.367188 1.285156 77.671875 -1.078125 C 75.972656 -3.453125 75.125 -6.1875 75.125 -9.28125 C 75.125 -12.0625 75.632812 -15.304688 76.65625 -19.015625 C 77.6875 -22.722656 78.894531 -26.5625 80.28125 -30.53125 C 81.675781 -34.5 82.890625 -38.363281 83.921875 -42.125 C 84.953125 -45.882812 85.46875 -49.15625 85.46875 -51.9375 C 85.46875 -55.75 84.234375 -57.65625 81.765625 -57.65625 C 79.597656 -57.65625 77.457031 -56.46875 75.34375 -54.09375 C 73.238281 -51.726562 71.332031 -48.738281 69.625 -45.125 C 67.925781 -41.519531 66.5625 -37.890625 65.53125 -34.234375 C 64.5 -30.578125 63.984375 -27.515625 63.984375 -25.046875 C 63.984375 -21.328125 65.117188 -19.46875 67.390625 -19.46875 C 67.898438 -19.46875 68.3125 -19.519531 68.625 -19.625 C 66.15625 -13.03125 62.988281 -7.695312 59.125 -3.625 C 55.257812 0.4375 51.160156 2.46875 46.828125 2.46875 C 40.753906 2.46875 37.71875 -1.394531 37.71875 -9.125 C 37.71875 -10.976562 37.894531 -12.78125 38.25 -14.53125 C 38.613281 -16.28125 39.15625 -18.390625 39.875 -20.859375 L 43.890625 -35.078125 C 44.921875 -38.691406 45.691406 -41.707031 46.203125 -44.125 C 46.722656 -46.550781 46.984375 -48.742188 46.984375 -50.703125 C 46.984375 -55.335938 45.488281 -57.65625 42.5 -57.65625 C 40.132812 -57.65625 37.867188 -56.414062 35.703125 -53.9375 C 33.535156 -51.46875 31.628906 -48.425781 29.984375 -44.8125 C 28.335938 -41.207031 27.023438 -37.601562 26.046875 -34 C 25.066406 -30.394531 24.578125 -27.457031 24.578125 -25.1875 C 24.578125 -21.375 25.757812 -19.46875 28.125 -19.46875 C 28.644531 -19.46875 29.007812 -19.519531 29.21875 -19.625 C 26.84375 -13.03125 23.722656 -7.695312 19.859375 -3.625 C 15.992188 0.4375 11.898438 2.46875 7.578125 2.46875 Z M 7.578125 2.46875 "/></g></g></g><g fill="#fff" fill-opacity="1"><g transform="translate(73.119617, 341.114162)"><g><path d="M 18.859375 2.46875 C 12.367188 2.46875 7.726562 0.28125 4.9375 -4.09375 C 2.15625 -8.476562 0.765625 -14.117188 0.765625 -21.015625 C 0.765625 -25.347656 1.253906 -29.9375 2.234375 -34.78125 C 3.210938 -39.625 4.53125 -44.566406 6.1875 -49.609375 C 7.9375 -54.972656 9.660156 -60.125 11.359375 -65.0625 C 13.054688 -70.007812 14.472656 -74.492188 15.609375 -78.515625 C 16.742188 -82.535156 17.3125 -85.832031 17.3125 -88.40625 C 17.3125 -91.082031 16.125 -92.421875 13.75 -92.421875 C 13.34375 -92.421875 12.929688 -92.421875 12.515625 -92.421875 C 12.109375 -92.421875 11.644531 -92.320312 11.125 -92.125 C 14.007812 -95.007812 17.28125 -97.660156 20.9375 -100.078125 C 24.601562 -102.503906 28.492188 -103.71875 32.609375 -103.71875 C 35.597656 -103.71875 37.863281 -102.914062 39.40625 -101.3125 C 40.957031 -99.71875 41.734375 -97.066406 41.734375 -93.359375 C 41.734375 -90.160156 41.035156 -86.0625 39.640625 -81.0625 C 38.253906 -76.070312 36.609375 -70.691406 34.703125 -64.921875 C 32.796875 -59.148438 31.066406 -53.429688 29.515625 -47.765625 C 28.898438 -45.703125 28.128906 -42.835938 27.203125 -39.171875 C 26.273438 -35.515625 25.8125 -32.039062 25.8125 -28.75 C 25.8125 -26.175781 26.25 -24.035156 27.125 -22.328125 C 28 -20.628906 29.675781 -19.78125 32.15625 -19.78125 C 35.96875 -19.78125 39.878906 -22.378906 43.890625 -27.578125 C 47.910156 -32.785156 51.722656 -40.800781 55.328125 -51.625 C 57.804688 -59.25 60.148438 -66.359375 62.359375 -72.953125 C 64.578125 -79.546875 65.6875 -84.695312 65.6875 -88.40625 C 65.6875 -91.082031 64.503906 -92.421875 62.140625 -92.421875 C 61.722656 -92.421875 61.304688 -92.421875 60.890625 -92.421875 C 60.484375 -92.421875 60.019531 -92.320312 59.5 -92.125 C 62.488281 -95.007812 65.8125 -97.660156 69.46875 -100.078125 C 73.132812 -102.503906 77.023438 -103.71875 81.140625 -103.71875 C 84.128906 -103.71875 86.367188 -102.914062 87.859375 -101.3125 C 89.359375 -99.71875 90.109375 -97.066406 90.109375 -93.359375 C 90.109375 -90.578125 89.566406 -87.097656 88.484375 -82.921875 C 87.398438 -78.742188 86.085938 -74.207031 84.546875 -69.3125 C 83.003906 -64.425781 81.457031 -59.429688 79.90625 -54.328125 C 78.363281 -49.222656 77.050781 -44.300781 75.96875 -39.5625 C 74.882812 -34.820312 74.34375 -30.597656 74.34375 -26.890625 C 74.34375 -23.285156 74.9375 -20.425781 76.125 -18.3125 C 77.3125 -16.195312 79.242188 -15.140625 81.921875 -15.140625 L 83.765625 -15.140625 C 82.835938 -12.984375 81.289062 -10.535156 79.125 -7.796875 C 76.96875 -5.066406 74.238281 -2.671875 70.9375 -0.609375 C 67.644531 1.441406 63.882812 2.46875 59.65625 2.46875 C 55.226562 2.46875 51.957031 1.023438 49.84375 -1.859375 C 47.726562 -4.742188 46.617188 -8.609375 46.515625 -13.453125 C 46.515625 -16.535156 46.828125 -19.832031 47.453125 -23.34375 C 44.566406 -15.40625 40.675781 -9.117188 35.78125 -4.484375 C 30.882812 0.148438 25.242188 2.46875 18.859375 2.46875 Z M 18.859375 2.46875 "/></g></g></g><g fill="#fff" fill-opacity="1"><g transform="translate(175.437688, 341.114162)"><g><path d="M -0.3125 31.84375 C -6.800781 31.84375 -10.046875 27.976562 -10.046875 20.25 C -10.046875 16.84375 -9.375 12.925781 -8.03125 8.5 L 10.359375 -54.71875 C 11.285156 -58.425781 11.75 -61.207031 11.75 -63.0625 C 11.75 -66.15625 10.507812 -67.703125 8.03125 -67.703125 C 7.3125 -67.703125 6.488281 -67.546875 5.5625 -67.234375 C 7.519531 -70.222656 10.195312 -73.054688 13.59375 -75.734375 C 17 -78.410156 20.710938 -79.75 24.734375 -79.75 C 31.328125 -79.75 34.625 -75.9375 34.625 -68.3125 C 34.625 -65.320312 34.109375 -61.972656 33.078125 -58.265625 C 34.617188 -62.179688 36.625 -65.757812 39.09375 -69 C 41.570312 -72.25 44.359375 -74.851562 47.453125 -76.8125 C 50.546875 -78.769531 53.738281 -79.75 57.03125 -79.75 C 61.769531 -79.75 65.195312 -77.6875 67.3125 -73.5625 C 69.425781 -69.445312 70.484375 -64.296875 70.484375 -58.109375 C 70.484375 -53.265625 69.890625 -48.085938 68.703125 -42.578125 C 67.515625 -37.066406 65.8125 -31.65625 63.59375 -26.34375 C 61.382812 -21.039062 58.734375 -16.195312 55.640625 -11.8125 C 52.546875 -7.4375 49.117188 -3.960938 45.359375 -1.390625 C 41.597656 1.179688 37.609375 2.46875 33.390625 2.46875 C 29.578125 2.46875 26.84375 1.101562 25.1875 -1.625 C 23.539062 -4.351562 22.71875 -7.570312 22.71875 -11.28125 C 22.71875 -16.632812 23.851562 -21.582031 26.125 -26.125 C 26.425781 -24.675781 27.09375 -23.226562 28.125 -21.78125 C 29.15625 -20.34375 30.648438 -19.625 32.609375 -19.625 C 34.671875 -19.625 36.628906 -20.578125 38.484375 -22.484375 C 40.335938 -24.390625 41.957031 -26.8125 43.34375 -29.75 C 44.738281 -32.6875 45.847656 -35.800781 46.671875 -39.09375 C 47.503906 -42.394531 47.921875 -45.4375 47.921875 -48.21875 C 47.921875 -50.894531 47.503906 -53.132812 46.671875 -54.9375 C 45.847656 -56.75 44.457031 -57.65625 42.5 -57.65625 C 40.238281 -57.65625 38.101562 -56.546875 36.09375 -54.328125 C 34.082031 -52.109375 32.273438 -49.375 30.671875 -46.125 C 29.078125 -42.882812 27.765625 -39.617188 26.734375 -36.328125 L 14.0625 6.796875 C 13.132812 10.304688 12.671875 13.039062 12.671875 15 C 12.671875 16.75 12.976562 17.984375 13.59375 18.703125 C 14.21875 19.421875 15.148438 19.78125 16.390625 19.78125 C 17.210938 19.78125 18.085938 19.625 19.015625 19.3125 C 19.015625 19.3125 18.523438 19.929688 17.546875 21.171875 C 16.566406 22.410156 15.222656 23.878906 13.515625 25.578125 C 11.816406 27.273438 9.78125 28.742188 7.40625 29.984375 C 5.039062 31.222656 2.46875 31.84375 -0.3125 31.84375 Z M -0.3125 31.84375 "/></g></g></g><g fill="#fff" fill-opacity="1"><g transform="translate(257.663135, 341.114162)"><g><path d="M 10.671875 -36.625 L 23.1875 -110.359375 L 48.84375 -110.359375 L 30.140625 -36.625 Z M 13.59375 2.015625 C 9.269531 2.015625 6.234375 0.90625 4.484375 -1.3125 C 2.734375 -3.53125 1.859375 -5.976562 1.859375 -8.65625 C 1.859375 -12.363281 3.015625 -15.785156 5.328125 -18.921875 C 7.648438 -22.066406 11.644531 -23.640625 17.3125 -23.640625 C 20.707031 -23.640625 23.4375 -22.6875 25.5 -20.78125 C 27.5625 -18.875 28.59375 -16.171875 28.59375 -12.671875 C 28.59375 -8.453125 27.226562 -4.945312 24.5 -2.15625 C 21.769531 0.625 18.132812 2.015625 13.59375 2.015625 Z M 13.59375 2.015625 "/></g></g></g></svg>